solid bouzie
facet normal -1.0 0.0 0.0
  outer loop
    vertex 30 30 -1
    vertex 30 30 8
    vertex 30 38 -1
  endloop
endfacet
facet normal -1.0 0.0 0.0
  outer loop
    vertex 30 30 8
    vertex 30 38 8
    vertex 30 38 -1
  endloop
endfacet
facet normal 1.0 0.0 0.0
  outer loop
    vertex 38 30 8
    vertex 38 30 -1
    vertex 38 38 -1
  endloop
endfacet
facet normal 1.0 0.0 0.0
  outer loop
    vertex 38 38 8
    vertex 38 30 8
    vertex 38 38 -1
  endloop
endfacet
facet normal 0.0 -1.0 0.0
  outer loop
    vertex 30 30 8
    vertex 30 30 -1
    vertex 38 30 -1
  endloop
endfacet
facet normal 0.0 -1.0 0.0
  outer loop
    vertex 38 30 -1
    vertex 38 30 8
    vertex 30 30 8
  endloop
endfacet
facet normal 0.0 1.0 0.0
  outer loop
    vertex 30 38 8
    vertex 38 38 -1
    vertex 30 38 -1
  endloop
endfacet
facet normal 0.0 1.0 0.0
  outer loop
    vertex 30 38 8
    vertex 38 38 8
    vertex 38 38 -1
  endloop
endfacet
facet normal 0.0 0.0 -1.0
  outer loop
    vertex 30 30 -1
    vertex 30 38 -1
    vertex 38 30 -1
  endloop
endfacet
facet normal 0.0 0.0 -1.0
  outer loop
    vertex 30 38 -1
    vertex 38 38 -1
    vertex 38 30 -1
  endloop
endfacet
facet normal 0.0 0.0 1.0
  outer loop
    vertex 38 30 8
    vertex 38 38 8
    vertex 30 38 8
  endloop
endfacet
facet normal 0.0 0.0 1.0
  outer loop
    vertex 30 38 8
    vertex 30 30 8
    vertex 38 30 8
  endloop
endfacet
facet normal -1.0 0.0 0.0
  outer loop
    vertex 72 30 -1
    vertex 72 30 8
    vertex 72 38 -1
  endloop
endfacet
facet normal -1.0 0.0 0.0
  outer loop
    vertex 72 30 8
    vertex 72 38 8
    vertex 72 38 -1
  endloop
endfacet
facet normal 1.0 0.0 0.0
  outer loop
    vertex 80 30 8
    vertex 80 30 -1
    vertex 80 38 -1
  endloop
endfacet
facet normal 1.0 0.0 0.0
  outer loop
    vertex 80 38 8
    vertex 80 30 8
    vertex 80 38 -1
  endloop
endfacet
facet normal 0.0 -1.0 0.0
  outer loop
    vertex 72 30 8
    vertex 72 30 -1
    vertex 80 30 -1
  endloop
endfacet
facet normal 0.0 -1.0 0.0
  outer loop
    vertex 80 30 -1
    vertex 80 30 8
    vertex 72 30 8
  endloop
endfacet
facet normal 0.0 1.0 0.0
  outer loop
    vertex 72 38 8
    vertex 80 38 -1
    vertex 72 38 -1
  endloop
endfacet
facet normal 0.0 1.0 0.0
  outer loop
    vertex 72 38 8
    vertex 80 38 8
    vertex 80 38 -1
  endloop
endfacet
facet normal 0.0 0.0 -1.0
  outer loop
    vertex 72 30 -1
    vertex 72 38 -1
    vertex 80 30 -1
  endloop
endfacet
facet normal 0.0 0.0 -1.0
  outer loop
    vertex 72 38 -1
    vertex 80 38 -1
    vertex 80 30 -1
  endloop
endfacet
facet normal 0.0 0.0 1.0
  outer loop
    vertex 80 30 8
    vertex 80 38 8
    vertex 72 38 8
  endloop
endfacet
facet normal 0.0 0.0 1.0
  outer loop
    vertex 72 38 8
    vertex 72 30 8
    vertex 80 30 8
  endloop
endfacet
facet normal -1.0 0.0 0.0
  outer loop
    vertex 114 30 -1
    vertex 114 30 8
    vertex 114 38 -1
  endloop
endfacet
facet normal -1.0 0.0 0.0
  outer loop
    vertex 114 30 8
    vertex 114 38 8
    vertex 114 38 -1
  endloop
endfacet
facet normal 1.0 0.0 0.0
  outer loop
    vertex 122 30 8
    vertex 122 30 -1
    vertex 122 38 -1
  endloop
endfacet
facet normal 1.0 0.0 0.0
  outer loop
    vertex 122 38 8
    vertex 122 30 8
    vertex 122 38 -1
  endloop
endfacet
facet normal 0.0 -1.0 0.0
  outer loop
    vertex 114 30 8
    vertex 114 30 -1
    vertex 122 30 -1
  endloop
endfacet
facet normal 0.0 -1.0 0.0
  outer loop
    vertex 122 30 -1
    vertex 122 30 8
    vertex 114 30 8
  endloop
endfacet
facet normal 0.0 1.0 0.0
  outer loop
    vertex 114 38 8
    vertex 122 38 -1
    vertex 114 38 -1
  endloop
endfacet
facet normal 0.0 1.0 0.0
  outer loop
    vertex 114 38 8
    vertex 122 38 8
    vertex 122 38 -1
  endloop
endfacet
facet normal 0.0 0.0 -1.0
  outer loop
    vertex 114 30 -1
    vertex 114 38 -1
    vertex 122 30 -1
  endloop
endfacet
facet normal 0.0 0.0 -1.0
  outer loop
    vertex 114 38 -1
    vertex 122 38 -1
    vertex 122 30 -1
  endloop
endfacet
facet normal 0.0 0.0 1.0
  outer loop
    vertex 122 30 8
    vertex 122 38 8
    vertex 114 38 8
  endloop
endfacet
facet normal 0.0 0.0 1.0
  outer loop
    vertex 114 38 8
    vertex 114 30 8
    vertex 122 30 8
  endloop
endfacet
endsolid bouzie